<svg width="28" height="28" viewBox="0 0 28 28" fill="none" xmlns="http://www.w3.org/2000/svg">
<path fill-rule="evenodd" clip-rule="evenodd" d="M23.8144 13.241C21.6021 14.6186 18.4995 16.0503 15.1002 17.2117C12.6991 18.0491 10.3519 18.6704 8.27456 19.0755C10.0552 23.6945 13.4275 26.6928 16.7459 26.1256C19.7945 25.6124 22.0877 22.0198 22.4115 17.1847L23.3557 17.2388C22.978 22.5871 20.442 26.4227 16.9078 27.044C16.584 27.098 16.2873 27.125 15.9635 27.125C12.5102 27.125 9.1109 23.9376 7.3303 19.2376C6.79072 19.3187 6.27812 19.3997 5.7925 19.4537C5.11803 19.5347 4.5245 19.5618 4.0119 19.5618C2.20431 19.5888 1.15214 19.1836 0.88235 18.3732C0.531625 17.3738 1.50286 16.1313 3.76909 14.6727L4.28169 15.456C2.06942 16.8876 1.66474 17.752 1.77265 18.0491C1.88057 18.3732 2.82483 18.8054 5.68459 18.5083C6.08927 18.4543 6.54791 18.4003 7.00655 18.3192C6.70978 17.4008 6.46697 16.4014 6.27812 15.402C5.71157 11.9445 6.00833 8.56804 7.14144 5.83987C8.30153 3.08469 10.1901 1.32894 12.4833 0.950775C15.2351 0.491578 18.1758 2.13928 20.3341 5.35366L19.5517 5.86688C17.6092 2.97664 15.0462 1.464 12.6451 1.86917C10.6757 2.22032 9.02996 3.75998 8.00477 6.24505C6.92561 8.78413 6.65582 11.9985 7.1954 15.2939C7.35728 16.2934 7.62706 17.2658 7.92383 18.1842C10.0012 17.806 12.3753 17.1577 14.7765 16.3204C18.1218 15.1589 21.1435 13.7813 23.3018 12.4307C25.7299 10.918 26.2155 9.97264 26.0806 9.64851C25.9997 9.37839 25.2173 8.9462 22.8701 9.13529L22.8162 8.18988C25.2712 8.02781 26.6741 8.40597 26.9979 9.35138C27.3486 10.4048 26.2695 11.7014 23.8144 13.241Z" fill="white"/>
<path d="M23.8144 13.241C21.6021 14.6186 18.4995 16.0503 15.1002 17.2117C12.6991 18.0491 10.3519 18.6704 8.27456 19.0755C10.0552 23.6945 13.4275 26.6928 16.7459 26.1256C19.7945 25.6124 22.0877 22.0198 22.4115 17.1847L23.3557 17.2388C22.978 22.5871 20.442 26.4227 16.9078 27.044C16.584 27.098 16.2873 27.125 15.9635 27.125C12.5102 27.125 9.1109 23.9376 7.3303 19.2376C6.79072 19.3187 6.27812 19.3997 5.7925 19.4537C5.11803 19.5347 4.5245 19.5618 4.0119 19.5618C2.20431 19.5888 1.15214 19.1836 0.88235 18.3732C0.531625 17.3738 1.50286 16.1313 3.76909 14.6727L4.28169 15.456C2.06942 16.8876 1.66474 17.752 1.77265 18.0491C1.88057 18.3732 2.82483 18.8054 5.68459 18.5083C6.08927 18.4543 6.54791 18.4003 7.00655 18.3192C6.70978 17.4008 6.46697 16.4014 6.27812 15.402C5.71156 11.9445 6.00833 8.56804 7.14144 5.83987C8.30153 3.08469 10.1901 1.32894 12.4833 0.950775C15.2351 0.491578 18.1758 2.13928 20.3341 5.35366L19.5517 5.86688C17.6092 2.97664 15.0462 1.464 12.6451 1.86917C10.6757 2.22032 9.02996 3.75998 8.00477 6.24505C6.92561 8.78413 6.65582 11.9985 7.1954 15.2939C7.35728 16.2934 7.62706 17.2658 7.92383 18.1842C10.0012 17.806 12.3753 17.1577 14.7765 16.3204C18.1218 15.1589 21.1435 13.7813 23.3018 12.4307C25.7299 10.918 26.2155 9.97264 26.0806 9.6485C25.9997 9.37839 25.2173 8.9462 22.8701 9.13529L22.8162 8.18988C25.2712 8.02781 26.6741 8.40597 26.9979 9.35138C27.3486 10.4048 26.2695 11.7014 23.8144 13.241" stroke="white" stroke-width="0.75"/>
</svg>
